<?xml version="1.0" encoding="utf-8"?>
<!-- Generator: Adobe Illustrator 16.0.0, SVG Export Plug-In . SVG Version: 6.00 Build 0)  -->
<!DOCTYPE svg PUBLIC "-//W3C//DTD SVG 1.1//EN" "http://www.w3.org/Graphics/SVG/1.1/DTD/svg11.dtd">
<svg version="1.1"
	 id="svg2" xmlns:dc="http://purl.org/dc/elements/1.1/" xmlns:cc="http://creativecommons.org/ns#" xmlns:rdf="http://www.w3.org/1999/02/22-rdf-syntax-ns#" xmlns:svg="http://www.w3.org/2000/svg"
	 xmlns="http://www.w3.org/2000/svg" xmlns:xlink="http://www.w3.org/1999/xlink" x="0px" y="0px" width="300px" height="235px"
	 viewBox="0 0 300 235" enable-background="new 0 0 300 235" xml:space="preserve">
<g id="layer1" transform="translate(0,-817.36218)">
	<g id="g3244" transform="matrix(0.78491286,0,0,0.78491286,-972.12018,-72.845919)">
		<path id="path7-0-5" d="M1442.957,1196.842l-0.241,234.316l-59.46-20.419l-0.418-274.204l75.897,21.186
			c48.582,13.786,78.314,40.585,77.83,87.551c-0.483,54.624-25.865,75.817-68.854,55.841v-101.276
			c0-14.941-24.753-25.851-24.753-2.995H1442.957z"/>
		<path id="path9" d="M1370.714,1303.151l-8.942,2.881l-86.547,31.044c-18.218,8.353-33.437,13.758-33.533,27.369
			c0.457,17.232,27.459,25.615,66.997,32.219c21.07,4.223,42.595,1.394,61.026-2.512l0.015-32.465c0,0-34.165,13.279-42.295,14.384
			l-16.438-0.091c-12.204-0.066-17.887-7.884-5.731-12.076l65.436-24.763l0.011-35.99V1303.151z"/>
		<path id="path9-8" d="M1524.502,1317.776c-22.722-0.075-54.188,6.118-69.788,13.374v37.003l41.132-15.041l32.581-10.359
			c33.932-5.586,47.423,6.262,14.373,16.164l-88.083,32.234l-0.107,35.882l128.694-46.3c14.203-4.952,34.177-14.952,34.226-27.242
			c-3.448-19.027-32.07-30.131-76.52-34.839c-3.988-0.411-7.994-0.668-11.973-0.786c-1.517-0.045-3.023-0.085-4.537-0.09
			L1524.502,1317.776z"/>
	</g>
</g>
</svg>
