<svg width="726px" height="59px" viewBox="-10 14 726 59" version="1.1" xmlns="http://www.w3.org/2000/svg" xmlns:xlink="http://www.w3.org/1999/xlink"> <!-- Generator: Sketch 39.1 (31720) - http://www.bohemiancoding.com/sketch --> <desc>Created with Sketch.</desc> <defs> <linearGradient x1="100%" y1="100%" x2="47.6115918%" y2="100%" id="linearGradient-1"> <stop stop-color="#BD52FF" stop-opacity="0" offset="0%"></stop> <stop stop-color="#BD52FF" stop-opacity="0.530485734" offset="100%"></stop> </linearGradient> <linearGradient x1="50%" y1="-6.57607256%" x2="50%" y2="110.909362%" id="linearGradient-2"> <stop stop-color="#BD52FF" offset="0%"></stop> <stop stop-color="#BD52FF" stop-opacity="0" offset="11.339814%"></stop> <stop stop-color="#BD52FF" stop-opacity="0" offset="84.6351085%"></stop> <stop stop-color="#BD52FF" offset="100%"></stop> </linearGradient> <linearGradient x1="13.1884665%" y1="50%" x2="44.5446064%" y2="50%" id="linearGradient-3"> <stop stop-color="#F6E6FF" offset="0%"></stop> <stop stop-color="#EAC9FF" offset="100%"></stop> </linearGradient> <linearGradient x1="13.1884665%" y1="50%" x2="44.5446064%" y2="50%" id="linearGradient-4"> <stop stop-color="#FFFFFF" offset="0%"></stop> <stop stop-color="#EAC9FF" stop-opacity="0" offset="100%"></stop> </linearGradient> </defs> <g id="Group" stroke="none" stroke-width="1" fill="none" fill-rule="evenodd" transform="translate(-10.000000, 14.000000)"> <rect id="Rectangle-20" fill="url(#linearGradient-1)" x="0" y="5" width="726" height="49"></rect> <path d="M11.5,4.5 L722.5,4.5" id="Line" stroke="#BD52FF" stroke-linecap="square"></path> <path d="M11.5,53.5 L722.5,53.5" id="Line" stroke="#BD52FF" stroke-linecap="square"></path> <ellipse id="Oval-4" fill="url(#linearGradient-2)" cx="383" cy="29.5" rx="255" ry="29.5"></ellipse> <path d="M0,8 C0,8 29.6373283,8.90121709 61.0107422,12.8183594 C66.0216181,13.4439946 68.9979502,15.8560681 74.0039063,16.5869141 C86.4272054,18.4006572 97.6574314,18.1875052 108.197266,19.9423828 C110.651975,20.3510909 116.039275,23.9897716 118.086914,24.4267578 C130.015982,26.9725379 138.179688,27.6937756 138.179688,29.5 C138.179688,31.8747753 122.229966,33.2623488 101.172852,36.5087891 C94.5348018,37.5321977 91.2813162,40.5441286 83.9667969,41.6230469 C80.0849697,42.1956306 73.0896203,41.0900383 69.0898438,41.6230469 C65.8031147,42.061035 61.0683356,43.0872939 57.8232422,43.5224609 C26.5748094,47.7128759 0,51 0,51 L0,8 Z" id="Rectangle-21" fill="#BD52FF"></path> <path d="M0,13 C0,13 112,24.1943435 112,30 C112,35.5276768 0,47 0,47 L0,13 Z" id="Rectangle-21" fill="#CF83FE"></path> <path d="M0,16 C0,16 20.444956,15.5527968 33.7324219,17.6972656 C37.6009178,18.3216035 32.3353391,21.3327029 36.3486328,21.953125 C46.5299848,23.5270781 57.5860993,23.7074948 61.9472656,26.2089844 C64.4186307,27.6265166 51,28.7298591 51,30.5 C51,33.2724811 63.0568512,34.361398 57.7021484,36.2832031 C53.9706267,37.6224479 42.5876702,36.8647347 36.3486328,37.9433586 C33.9394007,38.359874 38.7115771,40.7458355 36.3486328,41.1777336 C20.8171258,44.0165766 0,45 0,45 L0,16 Z" id="Rectangle-21" fill="url(#linearGradient-3)"></path> <path d="M0,3.06099391 C0,3.06099391 36.7838694,2.24508005 60.6902261,6.15762292 C67.6502923,7.29671566 58.1766423,12.7904095 65.3972238,13.9223579 C83.7151659,16.7940057 103.606951,17.1231724 111.453413,21.6870929 C115.899809,24.2733537 91.7574653,26.2863813 91.7574653,29.5159698 C91.7574653,34.5743092 113.449742,36.5610174 103.815743,40.0673146 C97.1021159,42.5107414 76.6222876,41.128308 65.3972238,43.0962368 C61.0626152,43.8561613 69.6485528,48.209303 65.3972238,48.9972929 C37.4534646,54.1767083 0,55.9709457 0,55.9709457 L0,3.06099391 Z" id="Rectangle-21" fill="url(#linearGradient-4)"></path> <path d="M178.5,16.5 L224.5,16.5" id="Line" stroke="#BD52FF" stroke-linecap="square"></path> <path d="M257.5,37.5 L280.5,37.5" id="Line" stroke="#BD52FF" stroke-linecap="square"></path> <path d="M322.5,24.5 L423.5,24.5" id="Line" stroke="#BD52FF" stroke-linecap="square"></path> <path d="M322.5,37.5 L343.5,37.5" id="Line" stroke="#BD52FF" stroke-linecap="square"></path> <path d="M424.5,11.5 L445.5,11.5" id="Line" stroke="#BD52FF" stroke-linecap="square"></path> <path d="M465.5,42.5 L486.5,42.5" id="Line-Copy" stroke="#BD52FF" stroke-linecap="square"></path> </g> </svg>