 <svg width="83px" height="82px" viewBox="0 0 83 82" version="1.1" xmlns="http://www.w3.org/2000/svg" xmlns:xlink="http://www.w3.org/1999/xlink"> <!-- Generator: Sketch 39.1 (31720) - http://www.bohemiancoding.com/sketch --> <title>Group 4 Copy</title> <desc>Created with Sketch.</desc> <defs> <circle id="path-1" cx="41" cy="41" r="41"></circle> <mask id="mask-2" maskContentUnits="userSpaceOnUse" maskUnits="objectBoundingBox" x="0" y="0" width="82" height="82" fill="white"> <use xlink:href="#path-1"></use> </mask> <circle id="path-3" cx="41" cy="41" r="30"></circle> <mask id="mask-4" maskContentUnits="userSpaceOnUse" maskUnits="objectBoundingBox" x="0" y="0" width="60" height="60" fill="white"> <use xlink:href="#path-3"></use> </mask> </defs> <g id="Page-1" stroke="none" stroke-width="1" fill="none" fill-rule="evenodd"> <g id="Group-4-Copy" transform="translate(0.261851, 0.000000)"> <g id="Group-2" fill="#3F3F3F"> <use id="Oval-Copy" stroke="#3F3F3F" mask="url(#mask-2)" stroke-width="28" xlink:href="#path-1"></use> <use id="Oval-Copy" stroke="#AAAAAA" mask="url(#mask-4)" stroke-width="12" xlink:href="#path-3"></use> </g> <g id="Group-3" transform="translate(17.000000, 16.000000)" fill="#656565"> <circle id="Oval" cx="24" cy="25" r="7"></circle> <path d="M23.6741977,24.4127081 L24.3658032,24.4127081 L24.5798686,25.0715336 L24.0200005,25.4783017 L23.4601323,25.0715336 L23.6741977,24.4127081 Z M21.1857141,20.9345426 L21.1857141,8.02324657 L15.8801981,2.48685761 C15.8801981,2.48685761 19.9500993,0.850006104 24.0200005,0.850006104 C28.0899016,0.850006104 32.1598028,2.48685761 32.1598028,2.48685761 L26.9052544,8.07491457 L26.9052544,20.9715727 L39.1842791,16.9818757 L42.8102033,10.2251919 C42.8102033,10.2251919 45.6246102,13.590083 46.8822789,17.460789 C48.1399475,21.3314951 47.8408778,25.7080161 47.8408778,25.7080161 L40.9025751,22.4374481 L28.6371243,26.4227347 L36.2263265,36.8683753 L43.7727868,38.228904 C43.7727868,38.228904 41.4422848,41.9453725 38.1496656,44.3376004 C34.8570464,46.7298283 30.60231,47.7978155 30.60231,47.7978155 L31.5687514,40.1884364 L23.9885008,29.7551164 L16.3996461,40.2002787 L17.437691,47.7978155 C17.437691,47.7978155 13.1829546,46.7298283 9.89033534,44.3376004 C6.59771612,41.9453725 4.26721407,38.228904 4.26721407,38.228904 L11.8028105,36.796617 L19.3834087,26.3628187 L7.10403648,22.3730088 L0.199123078,25.7080161 C0.199123078,25.7080161 -0.0999465796,21.3314951 1.15772205,17.460789 C2.41539068,13.590083 5.2297976,10.2251919 5.2297976,10.2251919 L8.92061083,16.949369 L21.1857141,20.9345426 Z" id="Rectangle-5"></path> </g> </g> </g> </svg>