<svg xmlns:dc="http://purl.org/dc/elements/1.1/" xmlns:cc="http://creativecommons.org/ns#" xmlns:rdf="http://www.w3.org/1999/02/22-rdf-syntax-ns#" xmlns:svg="http://www.w3.org/2000/svg" xmlns="http://www.w3.org/2000/svg" xmlns:xlink="http://www.w3.org/1999/xlink" version="1.1" width="300" height="235" enable-background="new 0 0 300 235" xml:space="preserve"><rect id="backgroundrect" width="100%" height="100%" x="0" y="0" fill="none" stroke="none"/>

<g class="currentLayer" style=""><title>Layer 1</title><g id="layer1" class="selected" fill="#888a8b" fill-opacity="1">
	<g id="g3244" fill="#888a8b" fill-opacity="1">
		<path id="path7-0-5" d="M160.47532572702005,49.2085734236572 l-0.18916399926000005,183.91764170376 l-46.670918655600005,-16.02713568834 l-0.32809357548000007,-215.22624586344003 l59.57253133542001,16.62916385196 c38.132636564520006,10.82080868796 61.46966571804,31.855688423100002 61.0897678938,68.71990580586001 c-0.3791129113800001,42.87508006464 -20.3017711239,59.50973830662 -54.04439006244,43.83031901526 v-79.49283480936 c0,-11.727383041260001 -19.428948023580002,-20.290782343860002 -19.428948023580002,-2.3508140157 H160.47532572702005 z" stroke-width="0" fill="#888a8b" fill-opacity="1"/>
		<path id="path9" d="M103.77086598203994,132.65187465739717 l-7.01869079412,2.2613339496600005 l-67.93185329442001,24.36683482584 c-14.299542483480002,6.5563771195800005 -26.24513129982,10.798831127880002 -26.320482934380003,21.48228006534 c0.35870517702000004,13.525618403520001 21.55292222274,20.1055429089 52.58680688142,25.289107436340004 c16.5381139602,3.31468700778 33.4333632717,1.09416852684 47.900092194360006,-1.9717011043200001 l0.011773692900000006,-25.482195999900004 c0,0 -26.816547861900002,10.422857867940001 -33.197889413700004,11.29018657824 l-12.90239759268,-0.07142707026000004 c-9.579076543440001,-0.051804248760000025 -14.039736326820002,-6.18825298824 -4.49833560066,-9.478607697360001 l51.36155790696001,-19.436797152180002 l0.008634041460000005,-28.249013831400003 V132.65187465739717 z" stroke-width="0" fill="#888a8b" fill-opacity="1"/>
		<path id="path9-8" d="M224.48104489571995,144.13122523489716 c-17.834790004920002,-0.05886846450000002 -42.53285805768,4.80209687748 -54.77749867368,10.497424589640001 v29.04413055858 l32.28503575752,-11.805874327260002 l25.573245891660005,-8.13091231674 c26.63366316552,-4.384523235960001 37.22292255978,4.91512432932 11.28155253678,12.687331469040002 l-69.13747944738,25.300881129240004 l-0.08398567602000002,28.16424324252 l101.01357560484,-36.341465418 c11.14811735058,-3.8868884827200003 26.825966816220003,-11.73601708272 26.86442754636,-21.382596132120003 c-2.70637954128,-14.934536987220001 -25.172155420200003,-23.650209384660002 -60.061532047200004,-27.34557912954 c-3.13023248568,-0.3225991854600001 -6.27459340284,-0.5243217904800003 -9.397761672780002,-0.61694150796 c-1.19071280862,-0.035321078700000015 -2.3727915757800004,-0.06671759310000003 -3.56114964582,-0.07064215740000003 L224.48104489571995,144.13122523489716 z" stroke-width="0" fill="#888a8b" fill-opacity="1"/>
	</g>
</g></g></svg>