<svg xmlns:dc="http://purl.org/dc/elements/1.1/" xmlns:cc="http://creativecommons.org/ns#" xmlns:rdf="http://www.w3.org/1999/02/22-rdf-syntax-ns#" xmlns:svg="http://www.w3.org/2000/svg" xmlns:sodipodi="http://sodipodi.sourceforge.net/DTD/sodipodi-0.dtd" xmlns:inkscape="http://www.inkscape.org/namespaces/inkscape" xmlns="http://www.w3.org/2000/svg" xmlns:xlink="http://www.w3.org/1999/xlink" version="1.1" sodipodi:docname="Xbox Logo.svg" inkscape:version="0.91pre4 r13712" width="372.369" height="372.572" enable-background="new 0 0 372.369 372.572" xml:space="preserve"><rect id="backgroundrect" width="100%" height="100%" x="0" y="0" fill="none" stroke="none"/>
<title id="title4166">Xbox Logo</title>
<sodipodi:namedview fit-margin-left="0" fit-margin-top="0" inkscape:cy="190.18765" inkscape:cx="120.11921" inkscape:zoom="2.2378738" showgrid="false" guidetolerance="10" gridtolerance="10" objecttolerance="10" pagecolor="#ffffff" bordercolor="#666666" borderopacity="1" id="namedview4138" fit-margin-bottom="0" fit-margin-right="0" inkscape:current-layer="g4146" inkscape:window-maximized="1" inkscape:window-y="-8" inkscape:window-x="-8" inkscape:window-height="1017" inkscape:window-width="1920" inkscape:pageshadow="2" inkscape:pageopacity="0">
	</sodipodi:namedview>

<g class="currentLayer" style=""><title>Layer 1</title><g id="g4146" class="selected" fill="#888a8b" fill-opacity="1">
	<path id="path4148" inkscape:connector-curvature="0" d="M167.61833809757232,371.8064666976929 c-28.684,-2.747 -57.724,-13.048 -82.67,-29.324 c-20.904,-13.639 -25.625,-19.245 -25.625,-30.435 c0,-22.476 24.712,-61.84 66.992,-106.716 c24.013,-25.486 57.461,-55.36 61.078,-54.551 c7.03,1.572 63.25,56.41 84.296,82.225 c33.281,40.821 48.582,74.246 40.809,89.147 c-5.908,11.327 -42.572,33.467 -69.508,41.972 C220.78933809757234,371.13646669769287 191.63433809757234,374.1064666976929 167.61833809757232,371.8064666976929 L167.61833809757232,371.8064666976929 zM31.089338097572323,288.6794666976929 C13.718338097572326,262.0304666976929 4.942338097572327,235.79446669769288 0.7043380975723266,197.84746669769288 c-1.399,-12.529 -0.8980000000000001,-19.696 3.177,-45.415 c5.079,-32.054 23.333,-69.136 45.268,-91.957 c9.342,-9.72 10.176,-9.957 21.563,-6.121 c13.828,4.659 28.596,14.857 51.498,35.567 l13.362,12.082 l-7.297,8.965 C94.40433809757232,152.58146669769286 58.646338097572325,211.56546669769287 45.170338097572326,248.05746669769286 c-7.3260000000000005,19.839 -10.28,39.753 -7.129,48.044 C40.170338097572326,301.69946669769286 38.21533809757233,299.61246669769287 31.089338097572323,288.6794666976929 zM336.0043380975723,293.21346669769287 c1.717,-8.378 -0.454,-23.763 -5.541,-39.28 c-11.017,-33.606 -47.84,-96.124 -81.653,-138.631 l-10.644,-13.381 l11.516,-10.574 c15.036,-13.807 25.476,-22.073 36.74,-29.094 c8.889,-5.541 21.591,-10.445 27.051,-10.445 c3.367,0 15.218,12.299 24.784,25.721 c14.817,20.788 25.719,45.987 31.241,72.22 c3.568,16.95 3.865,53.231 0.5740000000000001,70.14 c-2.7,13.876 -8.402,31.875 -13.966,44.082 c-4.168,9.146 -14.535,26.91 -19.078,32.69 C334.69333809757234,299.63246669769285 334.6913380975723,299.6264666976929 336.0043380975723,293.21346669769287 L336.0043380975723,293.21346669769287 zM170.6883380975723,45.46246669769287 c-15.602,-7.923 -39.669,-16.427 -52.965,-18.715 c-4.6610000000000005,-0.803 -12.611,-1.25 -17.669,-0.994 c-10.97,0.554 -10.479,-0.020000000000000004 7.118,-8.334 c14.63,-6.912 26.834,-10.977 43.4,-14.455 c18.637,-3.9130000000000003 53.666,-3.959 72.005,-0.09500000000000003 c19.809,4.175 43.133,12.854 56.276,20.942 l3.906,2.404 l-8.962,-0.453 c-17.811,-0.8980000000000001 -43.767,6.296 -71.633,19.857 c-8.405,4.091 -15.718,7.358 -16.25,7.261 S178.53133809757233,49.444466697692874 170.6883380975723,45.46246669769287 z" fill="#888a8b" fill-opacity="1"/>
</g></g></svg>